<?xml version="1.0" encoding="utf-8"?>
<!-- Uploaded to: SVG Repo, www.svgrepo.com, Generator: SVG Repo Mixer Tools -->
<svg width="800px" height="800px" viewBox="0 0 246 246" fill="none" xmlns="http://www.w3.org/2000/svg">
<g clip-path="url(#clip0_397_3084)">
<g filter="url(#filter0_iii_397_3084)">
<path d="M0 115C0 51.4872 51.4873 0 115 0H127C192.722 0 246 53.2781 246 119V127C246 192.722 192.722 246 127 246H123C55.069 246 0 190.931 0 123V115Z" fill="url(#paint0_radial_397_3084)"/>
</g>
<g filter="url(#filter1_dii_397_3084)">
<path d="M170 40.6556C170 36.9798 172.993 33.9545 176.636 34.4423C180.921 35.0161 185.123 36.1445 189.134 37.806C195.2 40.3188 200.712 44.0017 205.355 48.6447C209.998 53.2876 213.681 58.7995 216.194 64.8658C217.856 68.8772 218.984 73.079 219.558 77.3639C220.046 81.0072 217.02 84 213.344 84C209.669 84 206.75 80.9962 206.087 77.3808C205.621 74.8429 204.888 72.3551 203.896 69.9598C202.052 65.5086 199.35 61.464 195.943 58.0572C192.536 54.6503 188.491 51.9478 184.04 50.1041C181.645 49.1119 179.157 48.3789 176.619 47.9133C173.004 47.2502 170 44.3315 170 40.6556Z" fill="url(#paint1_linear_397_3084)"/>
</g>
<g filter="url(#filter2_dii_397_3084)">
<path d="M76 40.6556C76 36.9798 73.0072 33.9545 69.3639 34.4423C65.079 35.0161 60.8772 36.1445 56.8658 37.806C50.7996 40.3188 45.2876 44.0017 40.6447 48.6447C36.0017 53.2876 32.3188 58.7995 29.806 64.8658C28.1445 68.8772 27.0161 73.079 26.4423 77.3639C25.9545 81.0072 28.9798 84 32.6556 84C36.3315 84 39.2502 80.9962 39.9133 77.3808C40.3789 74.8429 41.1119 72.3551 42.1041 69.9598C43.9478 65.5086 46.6503 61.464 50.0572 58.0572C53.464 54.6503 57.5086 51.9478 61.9598 50.1041C64.3551 49.1119 66.8429 48.3789 69.3808 47.9133C72.9962 47.2502 76 44.3315 76 40.6556Z" fill="url(#paint2_linear_397_3084)"/>
</g>
<g filter="url(#filter3_i_397_3084)">
<path d="M97.5401 93C101.66 93 105.081 96.3782 104.197 100.402C102.794 106.789 99.5912 112.699 94.8952 117.395C88.4252 123.865 79.65 127.5 70.5 127.5C61.35 127.5 52.5748 123.865 46.1048 117.395C41.6509 112.941 38.5406 107.395 37.0346 101.386C35.8974 96.8481 39.7924 93 44.4706 93C48.8564 93 52.2631 96.7188 54.1273 100.689C55.0089 102.566 56.215 104.296 57.7097 105.79C61.1019 109.182 65.7027 111.088 70.5 111.088C75.2973 111.088 79.8981 109.182 83.2903 105.79C84.5423 104.538 85.5918 103.122 86.4178 101.591C88.7658 97.2403 92.5961 93 97.5401 93Z" fill="#C4C4C4"/>
<path d="M97.5401 93C101.66 93 105.081 96.3782 104.197 100.402C102.794 106.789 99.5912 112.699 94.8952 117.395C88.4252 123.865 79.65 127.5 70.5 127.5C61.35 127.5 52.5748 123.865 46.1048 117.395C41.6509 112.941 38.5406 107.395 37.0346 101.386C35.8974 96.8481 39.7924 93 44.4706 93C48.8564 93 52.2631 96.7188 54.1273 100.689C55.0089 102.566 56.215 104.296 57.7097 105.79C61.1019 109.182 65.7027 111.088 70.5 111.088C75.2973 111.088 79.8981 109.182 83.2903 105.79C84.5423 104.538 85.5918 103.122 86.4178 101.591C88.7658 97.2403 92.5961 93 97.5401 93Z" fill="#221725"/>
</g>
<g filter="url(#filter4_i_397_3084)">
<path d="M194.54 93C198.66 93 202.081 96.3782 201.197 100.402C199.794 106.789 196.591 112.699 191.895 117.395C185.425 123.865 176.65 127.5 167.5 127.5C158.35 127.5 149.575 123.865 143.105 117.395C138.651 112.941 135.541 107.395 134.035 101.386C132.897 96.8481 136.792 93 141.471 93C145.856 93 149.263 96.7188 151.127 100.689C152.009 102.566 153.215 104.296 154.71 105.79C158.102 109.182 162.703 111.088 167.5 111.088C172.297 111.088 176.898 109.182 180.29 105.79C181.542 104.538 182.592 103.122 183.418 101.591C185.766 97.2403 189.596 93 194.54 93Z" fill="#C4C4C4"/>
<path d="M194.54 93C198.66 93 202.081 96.3782 201.197 100.402C199.794 106.789 196.591 112.699 191.895 117.395C185.425 123.865 176.65 127.5 167.5 127.5C158.35 127.5 149.575 123.865 143.105 117.395C138.651 112.941 135.541 107.395 134.035 101.386C132.897 96.8481 136.792 93 141.471 93C145.856 93 149.263 96.7188 151.127 100.689C152.009 102.566 153.215 104.296 154.71 105.79C158.102 109.182 162.703 111.088 167.5 111.088C172.297 111.088 176.898 109.182 180.29 105.79C181.542 104.538 182.592 103.122 183.418 101.591C185.766 97.2403 189.596 93 194.54 93Z" fill="#221725"/>
</g>
<g filter="url(#filter5_i_397_3084)">
<rect x="109" y="139" width="29" height="27" rx="13.5" fill="url(#paint3_linear_397_3084)"/>
</g>
<g filter="url(#filter6_i_397_3084)">
<path fill-rule="evenodd" clip-rule="evenodd" d="M118.232 154.037C118.232 154.037 112.315 179.16 93.3999 188.278L93.4024 188.28H93.4C82.6857 188.28 74 196.966 74 207.68C74 218.395 82.6857 227.08 93.4 227.08C93.9496 227.08 94.4939 227.057 95.0319 227.013C99.0076 238.35 109.804 246.48 122.5 246.48C135.196 246.48 145.992 238.35 149.968 227.013C150.506 227.057 151.05 227.08 151.6 227.08C162.315 227.08 171 218.395 171 207.68C171 196.967 162.317 188.283 151.605 188.28L151.6 188.278C132.2 178.384 126.283 154.037 126.283 154.037C124.246 151.321 120.269 151.321 118.232 154.037Z" fill="white"/>
</g>
</g>
<defs>
<filter id="filter0_iii_397_3084" x="-11" y="-24" width="278" height="326" filterUnits="userSpaceOnUse" color-interpolation-filters="sRGB">
<feFlood flood-opacity="0" result="BackgroundImageFix"/>
<feBlend mode="normal" in="SourceGraphic" in2="BackgroundImageFix" result="shape"/>
<feColorMatrix in="SourceAlpha" type="matrix" values="0 0 0 0 0 0 0 0 0 0 0 0 0 0 0 0 0 0 127 0" result="hardAlpha"/>
<feMorphology radius="8" operator="erode" in="SourceAlpha" result="effect1_innerShadow_397_3084"/>
<feOffset dx="21" dy="73"/>
<feGaussianBlur stdDeviation="24"/>
<feComposite in2="hardAlpha" operator="arithmetic" k2="-1" k3="1"/>
<feColorMatrix type="matrix" values="0 0 0 0 0.682806 0 0 0 0 0.0652778 0 0 0 0 0.783333 0 0 0 0.14 0"/>
<feBlend mode="normal" in2="shape" result="effect1_innerShadow_397_3084"/>
<feColorMatrix in="SourceAlpha" type="matrix" values="0 0 0 0 0 0 0 0 0 0 0 0 0 0 0 0 0 0 127 0" result="hardAlpha"/>
<feOffset dy="-24"/>
<feGaussianBlur stdDeviation="15.5"/>
<feComposite in2="hardAlpha" operator="arithmetic" k2="-1" k3="1"/>
<feColorMatrix type="matrix" values="0 0 0 0 0.943639 0 0 0 0 0.223611 0 0 0 0 0.958333 0 0 0 0.44 0"/>
<feBlend mode="normal" in2="effect1_innerShadow_397_3084" result="effect2_innerShadow_397_3084"/>
<feColorMatrix in="SourceAlpha" type="matrix" values="0 0 0 0 0 0 0 0 0 0 0 0 0 0 0 0 0 0 127 0" result="hardAlpha"/>
<feOffset dx="-11" dy="30"/>
<feGaussianBlur stdDeviation="15.5"/>
<feComposite in2="hardAlpha" operator="arithmetic" k2="-1" k3="1"/>
<feColorMatrix type="matrix" values="0 0 0 0 1 0 0 0 0 0.766722 0 0 0 0 0.693056 0 0 0 0.68 0"/>
<feBlend mode="normal" in2="effect2_innerShadow_397_3084" result="effect3_innerShadow_397_3084"/>
</filter>
<filter id="filter1_dii_397_3084" x="149" y="22.3906" width="103.609" height="103.609" filterUnits="userSpaceOnUse" color-interpolation-filters="sRGB">
<feFlood flood-opacity="0" result="BackgroundImageFix"/>
<feColorMatrix in="SourceAlpha" type="matrix" values="0 0 0 0 0 0 0 0 0 0 0 0 0 0 0 0 0 0 127 0" result="hardAlpha"/>
<feOffset dx="6" dy="15"/>
<feGaussianBlur stdDeviation="13.5"/>
<feColorMatrix type="matrix" values="0 0 0 0 0.0313726 0 0 0 0 0.02 0 0 0 0 0.0352941 0 0 0 0.25 0"/>
<feBlend mode="normal" in2="BackgroundImageFix" result="effect1_dropShadow_397_3084"/>
<feBlend mode="normal" in="SourceGraphic" in2="effect1_dropShadow_397_3084" result="shape"/>
<feColorMatrix in="SourceAlpha" type="matrix" values="0 0 0 0 0 0 0 0 0 0 0 0 0 0 0 0 0 0 127 0" result="hardAlpha"/>
<feOffset dy="4.44444"/>
<feGaussianBlur stdDeviation="2.22222"/>
<feComposite in2="hardAlpha" operator="arithmetic" k2="-1" k3="1"/>
<feColorMatrix type="matrix" values="0 0 0 0 0.181961 0 0 0 0 0.116 0 0 0 0 0.204706 0 0 0 1 0"/>
<feBlend mode="normal" in2="shape" result="effect2_innerShadow_397_3084"/>
<feColorMatrix in="SourceAlpha" type="matrix" values="0 0 0 0 0 0 0 0 0 0 0 0 0 0 0 0 0 0 127 0" result="hardAlpha"/>
<feOffset dy="-4.44444"/>
<feGaussianBlur stdDeviation="2.22222"/>
<feComposite in2="hardAlpha" operator="arithmetic" k2="-1" k3="1"/>
<feColorMatrix type="matrix" values="0 0 0 0 0.12549 0 0 0 0 0.08 0 0 0 0 0.141176 0 0 0 1 0"/>
<feBlend mode="normal" in2="effect2_innerShadow_397_3084" result="effect3_innerShadow_397_3084"/>
</filter>
<filter id="filter2_dii_397_3084" x="5.39052" y="22.3906" width="103.609" height="103.609" filterUnits="userSpaceOnUse" color-interpolation-filters="sRGB">
<feFlood flood-opacity="0" result="BackgroundImageFix"/>
<feColorMatrix in="SourceAlpha" type="matrix" values="0 0 0 0 0 0 0 0 0 0 0 0 0 0 0 0 0 0 127 0" result="hardAlpha"/>
<feOffset dx="6" dy="15"/>
<feGaussianBlur stdDeviation="13.5"/>
<feColorMatrix type="matrix" values="0 0 0 0 0.0313726 0 0 0 0 0.02 0 0 0 0 0.0352941 0 0 0 0.25 0"/>
<feBlend mode="normal" in2="BackgroundImageFix" result="effect1_dropShadow_397_3084"/>
<feBlend mode="normal" in="SourceGraphic" in2="effect1_dropShadow_397_3084" result="shape"/>
<feColorMatrix in="SourceAlpha" type="matrix" values="0 0 0 0 0 0 0 0 0 0 0 0 0 0 0 0 0 0 127 0" result="hardAlpha"/>
<feOffset dy="4.44444"/>
<feGaussianBlur stdDeviation="2.22222"/>
<feComposite in2="hardAlpha" operator="arithmetic" k2="-1" k3="1"/>
<feColorMatrix type="matrix" values="0 0 0 0 0.181961 0 0 0 0 0.116 0 0 0 0 0.204706 0 0 0 1 0"/>
<feBlend mode="normal" in2="shape" result="effect2_innerShadow_397_3084"/>
<feColorMatrix in="SourceAlpha" type="matrix" values="0 0 0 0 0 0 0 0 0 0 0 0 0 0 0 0 0 0 127 0" result="hardAlpha"/>
<feOffset dy="-4.44444"/>
<feGaussianBlur stdDeviation="2.22222"/>
<feComposite in2="hardAlpha" operator="arithmetic" k2="-1" k3="1"/>
<feColorMatrix type="matrix" values="0 0 0 0 0.12549 0 0 0 0 0.08 0 0 0 0 0.141176 0 0 0 1 0"/>
<feBlend mode="normal" in2="effect2_innerShadow_397_3084" result="effect3_innerShadow_397_3084"/>
</filter>
<filter id="filter3_i_397_3084" x="36.8352" y="93" width="67.5018" height="34.5" filterUnits="userSpaceOnUse" color-interpolation-filters="sRGB">
<feFlood flood-opacity="0" result="BackgroundImageFix"/>
<feBlend mode="normal" in="SourceGraphic" in2="BackgroundImageFix" result="shape"/>
<feColorMatrix in="SourceAlpha" type="matrix" values="0 0 0 0 0 0 0 0 0 0 0 0 0 0 0 0 0 0 127 0" result="hardAlpha"/>
<feMorphology radius="26.45" operator="dilate" in="SourceAlpha" result="effect1_innerShadow_397_3084"/>
<feOffset dx="9.2" dy="-7"/>
<feGaussianBlur stdDeviation="10.35"/>
<feComposite in2="hardAlpha" operator="arithmetic" k2="-1" k3="1"/>
<feColorMatrix type="matrix" values="0 0 0 0 0.462111 0 0 0 0 0.203767 0 0 0 0 0.504167 0 0 0 0.35 0"/>
<feBlend mode="normal" in2="shape" result="effect1_innerShadow_397_3084"/>
</filter>
<filter id="filter4_i_397_3084" x="133.835" y="93" width="67.5018" height="34.5" filterUnits="userSpaceOnUse" color-interpolation-filters="sRGB">
<feFlood flood-opacity="0" result="BackgroundImageFix"/>
<feBlend mode="normal" in="SourceGraphic" in2="BackgroundImageFix" result="shape"/>
<feColorMatrix in="SourceAlpha" type="matrix" values="0 0 0 0 0 0 0 0 0 0 0 0 0 0 0 0 0 0 127 0" result="hardAlpha"/>
<feMorphology radius="26.45" operator="dilate" in="SourceAlpha" result="effect1_innerShadow_397_3084"/>
<feOffset dx="9.2" dy="-9"/>
<feGaussianBlur stdDeviation="10.35"/>
<feComposite in2="hardAlpha" operator="arithmetic" k2="-1" k3="1"/>
<feColorMatrix type="matrix" values="0 0 0 0 0.462111 0 0 0 0 0.203767 0 0 0 0 0.504167 0 0 0 0.35 0"/>
<feBlend mode="normal" in2="shape" result="effect1_innerShadow_397_3084"/>
</filter>
<filter id="filter5_i_397_3084" x="109" y="139" width="29" height="27" filterUnits="userSpaceOnUse" color-interpolation-filters="sRGB">
<feFlood flood-opacity="0" result="BackgroundImageFix"/>
<feBlend mode="normal" in="SourceGraphic" in2="BackgroundImageFix" result="shape"/>
<feColorMatrix in="SourceAlpha" type="matrix" values="0 0 0 0 0 0 0 0 0 0 0 0 0 0 0 0 0 0 127 0" result="hardAlpha"/>
<feMorphology radius="31.2004" operator="dilate" in="SourceAlpha" result="effect1_innerShadow_397_3084"/>
<feOffset dx="10.8523" dy="-32.5569"/>
<feGaussianBlur stdDeviation="12.2088"/>
<feComposite in2="hardAlpha" operator="arithmetic" k2="-1" k3="1"/>
<feColorMatrix type="matrix" values="0 0 0 0 0.462111 0 0 0 0 0.203767 0 0 0 0 0.504167 0 0 0 0.35 0"/>
<feBlend mode="normal" in2="shape" result="effect1_innerShadow_397_3084"/>
</filter>
<filter id="filter6_i_397_3084" x="74" y="144" width="101.85" height="102.48" filterUnits="userSpaceOnUse" color-interpolation-filters="sRGB">
<feFlood flood-opacity="0" result="BackgroundImageFix"/>
<feBlend mode="normal" in="SourceGraphic" in2="BackgroundImageFix" result="shape"/>
<feColorMatrix in="SourceAlpha" type="matrix" values="0 0 0 0 0 0 0 0 0 0 0 0 0 0 0 0 0 0 127 0" result="hardAlpha"/>
<feOffset dx="4.85" dy="-8"/>
<feGaussianBlur stdDeviation="9.7"/>
<feComposite in2="hardAlpha" operator="arithmetic" k2="-1" k3="1"/>
<feColorMatrix type="matrix" values="0 0 0 0 0.887611 0 0 0 0 0.197222 0 0 0 0 1 0 0 0 0.16 0"/>
<feBlend mode="normal" in2="shape" result="effect1_innerShadow_397_3084"/>
</filter>
<radialGradient id="paint0_radial_397_3084" cx="0" cy="0" r="1" gradientUnits="userSpaceOnUse" gradientTransform="translate(109 16) rotate(86.5167) scale(230.426)">
<stop offset="0.576389" stop-color="#FFBB0C"/>
<stop offset="1" stop-color="#FFC907"/>
</radialGradient>
<linearGradient id="paint1_linear_397_3084" x1="170" y1="134" x2="170" y2="34" gradientUnits="userSpaceOnUse">
<stop stop-color="#2D1D32"/>
<stop offset="1" stop-color="#221526"/>
</linearGradient>
<linearGradient id="paint2_linear_397_3084" x1="76" y1="134" x2="76" y2="34" gradientUnits="userSpaceOnUse">
<stop stop-color="#2D1D32"/>
<stop offset="1" stop-color="#221526"/>
</linearGradient>
<linearGradient id="paint3_linear_397_3084" x1="123.5" y1="139" x2="144.697" y2="163.032" gradientUnits="userSpaceOnUse">
<stop stop-color="#FF20C1"/>
<stop offset="1" stop-color="#3A2EC0"/>
</linearGradient>
<clipPath id="clip0_397_3084">
<rect width="246" height="246" fill="white"/>
</clipPath>
</defs>
</svg>